<svg width="52" height="52" viewBox="0 0 52 52" fill="none" xmlns="http://www.w3.org/2000/svg">
<path d="M26.0432 1.0523C39.8101 1.0523 51.0341 12.1889 51.0341 26.0439C51.0341 39.8988 39.8101 50.9478 26.0432 50.9478C12.2763 50.9478 1.05229 39.8112 1.05229 26.0439C1.05229 12.2766 12.1886 1.0523 26.0432 1.0523ZM26.0432 0.438477C11.9255 0.438477 0.438477 11.9258 0.438477 26.0439C0.438477 40.1619 11.9255 51.6493 26.0432 51.6493C40.1609 51.6493 51.6479 40.1619 51.6479 26.0439C51.6479 11.9258 40.0732 0.438477 26.0432 0.438477Z" fill="#161616"/>
<path d="M14.6442 15.9594C14.4688 15.9594 14.4688 15.8717 14.4688 15.784C14.4688 15.6086 14.5565 15.1702 14.9073 15.1702C16.2226 15.1702 17.4502 15.2579 18.7655 15.2579C19.9055 15.2579 21.0454 15.1702 22.1853 15.1702C22.3607 15.1702 22.4484 15.1702 22.4484 15.3455C22.4484 15.9594 22.273 16.0471 21.5715 16.0471C19.9931 16.2224 19.8178 16.4855 19.1163 19.9054C18.8532 21.3084 16.398 33.4096 16.398 34.8127C16.398 35.9526 17.4502 35.9526 18.7655 35.9526C24.2898 35.9526 25.4298 34.6373 25.9559 32.9712C26.1313 32.445 26.1313 32.3574 26.3066 32.3574C26.482 32.3574 26.8328 32.3574 26.8328 32.6204C26.8328 32.7081 26.3943 34.4619 26.1313 35.2511C25.6051 36.7418 25.4298 37.0049 23.7637 37.0049C21.5715 37.0049 19.3793 36.9172 17.1872 36.9172C14.2935 36.9172 12.5397 37.0049 11.3121 37.0049C11.2244 37.0049 11.1367 37.0049 11.1367 36.8295C11.1367 36.2157 11.3998 36.2157 12.0136 36.128C13.592 35.9526 13.7673 35.6896 14.4688 32.2697C14.7319 30.9543 17.1872 18.9408 17.1872 17.5378C17.0118 16.2224 16.2226 16.1348 14.6442 15.9594Z" fill="#161616"/>
<path d="M22.9746 19.5547C22.9746 16.0471 25.6052 14.9949 28.3235 14.9949C28.6743 14.9949 29.8142 14.9949 30.9542 15.0826C32.0941 15.0826 33.0587 15.1703 33.5848 15.1703C34.7247 15.1703 35.9523 15.0826 37.0923 15.0826C37.443 15.0826 37.5307 15.521 37.5307 15.6964C37.5307 15.7841 37.5307 15.7841 37.3553 15.8718C35.8647 16.0471 34.9878 16.1348 34.9878 17.5379C34.9878 18.8532 37.443 30.9544 37.7061 32.2697C38.4076 35.6896 38.583 35.9527 40.1613 36.1281C40.8628 36.2158 41.0382 36.2158 41.0382 36.8296C41.0382 37.005 40.9505 37.005 40.8628 37.005C39.5475 37.005 38.3199 36.9173 37.0046 36.9173C35.6016 36.9173 34.1109 37.005 32.7079 37.005C32.3572 37.005 32.2695 36.5665 32.2695 36.3912C32.2695 36.2158 32.3572 36.2158 33.0587 36.2158C34.5493 36.1281 35.6893 36.1281 35.6893 34.6374C35.6893 33.1466 32.5325 17.6256 32.4448 17.2748C32.2695 16.661 32.0941 16.1348 29.9019 16.1348C27.0959 16.1348 25.5175 17.2748 25.5175 19.9932C25.5175 22.5362 27.0959 25.3423 31.4803 25.3423C32.4449 25.3423 32.4448 25.3423 32.4448 25.6053C32.4448 26.3068 32.1818 26.3068 31.3926 26.3068C26.8329 26.2192 22.9746 23.6762 22.9746 19.5547Z" fill="#161616"/>
</svg>
