<svg width="24" height="24" viewBox="0 0 24 24" fill="none" xmlns="http://www.w3.org/2000/svg">
<path d="M12.57 1.5C10.3806 1.5 8.24029 2.14924 6.41984 3.36563C4.59939 4.58202 3.18052 6.31092 2.34266 8.33369C1.5048 10.3565 1.28557 12.5823 1.71271 14.7296C2.13985 16.877 3.19417 18.8495 4.74233 20.3977C6.2905 21.9458 8.26298 23.0001 10.4104 23.4273C12.5577 23.8544 14.7835 23.6352 16.8063 22.7973C18.8291 21.9595 20.558 20.5406 21.7744 18.7202C22.9908 16.8997 23.64 14.7594 23.64 12.57C23.6367 9.63508 22.4693 6.82133 20.394 4.74603C18.3187 2.67072 15.5049 1.50335 12.57 1.5ZM7.82572 20.7752V19.6864C7.82635 19.0575 8.07647 18.4545 8.5212 18.0098C8.96592 17.565 9.56892 17.3149 10.1979 17.3143H14.9421C15.5711 17.3149 16.1741 17.565 16.6188 18.0098C17.0635 18.4545 17.3137 19.0575 17.3143 19.6864V20.7752C15.8745 21.6159 14.2372 22.0589 12.57 22.0589C10.9028 22.0589 9.26548 21.6159 7.82572 20.7752ZM18.8894 19.6279C18.8736 18.5908 18.4511 17.6013 17.7127 16.8727C16.9744 16.1442 15.9794 15.7348 14.9421 15.7329H10.1979C9.16059 15.7348 8.1656 16.1442 7.42727 16.8727C6.68894 17.6013 6.26637 18.5908 6.25062 19.6279C4.81671 18.3475 3.80551 16.6618 3.35094 14.794C2.89636 12.9262 3.01984 10.9643 3.70502 9.16823C4.39021 7.37214 5.60478 5.82652 7.18791 4.73605C8.77104 3.64558 10.648 3.06168 12.5704 3.06168C14.4927 3.06168 16.3698 3.64558 17.9529 4.73605C19.536 5.82652 20.7506 7.37214 21.4358 9.16823C22.121 10.9643 22.2444 12.9262 21.7899 14.794C21.3353 16.6618 20.3233 18.3475 18.8894 19.6279Z" fill="white"/>
</svg>
