<svg width="193" height="52" viewBox="0 0 193 52" fill="none" xmlns="http://www.w3.org/2000/svg">
<path d="M26.1008 1.0523C39.8981 1.0523 51.1469 12.1889 51.1469 26.0439C51.1469 39.8988 39.8981 50.9478 26.1008 50.9478C12.3034 50.9478 1.05462 39.8112 1.05462 26.0439C1.05462 12.2766 12.2155 1.0523 26.1008 1.0523ZM26.1008 0.438477C11.9519 0.438477 0.439453 11.9258 0.439453 26.0439C0.439453 40.1619 11.9519 51.6493 26.1008 51.6493C40.2497 51.6493 51.7621 40.1619 51.7621 26.0439C51.7621 11.9258 40.1618 0.438477 26.1008 0.438477Z" fill="white"/>
<path d="M69.4263 15.346L68.1081 15.7844C68.0202 15.8721 68.0202 15.8721 68.0202 15.9598V25.6934L71.9749 25.6057C72.0628 25.6057 72.1506 25.6057 72.1506 25.518L73.0294 23.3258H73.1173V26.4826H73.0294C72.8537 26.3949 72.5022 26.3072 70.7445 26.3072H65.208V26.2195L66.4383 25.7811C66.5262 25.6934 66.5262 25.6934 66.5262 25.6057V15.9598C66.5262 15.8721 66.5262 15.8721 66.4383 15.7844L65.208 15.346V15.2583H69.4263V15.346Z" fill="white"/>
<path d="M82.4327 15.9598C82.4327 15.8721 82.4327 15.8721 82.3448 15.7844L80.9387 15.346V15.2583H84.366V15.346L83.3115 15.7844C83.2236 15.7844 83.2236 15.8721 83.2236 15.9598V22.4489C83.2236 24.9042 81.8175 26.3949 79.3568 26.3949C76.8083 26.3949 74.9628 24.9919 74.9628 22.3612V15.9598C74.9628 15.8721 74.9627 15.8721 74.8749 15.7844L73.6445 15.346V15.2583H77.5992V15.346L76.5446 15.7844C76.4567 15.8721 76.4567 15.8721 76.4567 15.9598V22.1858C76.4567 24.6411 77.3355 25.518 79.6205 25.518C81.5538 25.518 82.5205 24.5534 82.5205 22.3612V15.9598H82.4327Z" fill="white"/>
<path d="M86.2118 15.7844L85.1572 15.346V15.2583H89.1998V15.346L88.2331 15.7844C88.1452 15.7844 88.1452 15.8721 88.1452 15.9598L90.4301 19.6428H90.518L92.8029 15.9598C92.8029 15.8721 92.8029 15.8721 92.715 15.7844L91.4847 15.346V15.2583H94.912V15.346L93.8575 15.7844C93.7696 15.8721 93.6817 15.8721 93.6817 15.9598L90.8695 20.1689L94.2969 25.518C94.2969 25.6057 94.3847 25.6057 94.4726 25.6057L95.6151 26.0441V26.1318H91.5725V26.0441L92.5392 25.6057C92.6271 25.6057 92.6271 25.518 92.6271 25.4303L89.9907 21.2212L87.2664 25.4303C87.2664 25.518 87.2664 25.518 87.3542 25.6057L88.5846 26.0441V26.1318H85.0693V26.0441L86.2118 25.6057C86.2997 25.6057 86.2997 25.6057 86.3876 25.518L89.727 20.6951L86.5633 15.7844C86.2997 15.8721 86.2997 15.7844 86.2118 15.7844Z" fill="white"/>
<path d="M104.491 15.9598C104.491 15.8721 104.491 15.8721 104.403 15.7844L102.997 15.346V15.2583H106.425V15.346L105.37 15.7844C105.282 15.7844 105.282 15.8721 105.282 15.9598V22.4489C105.282 24.9042 103.876 26.3949 101.415 26.3949C98.8669 26.3949 97.0213 24.9919 97.0213 22.3612V15.9598C97.0213 15.8721 97.0213 15.8721 96.9335 15.7844L95.7031 15.346V15.2583H99.6578V15.346L98.6032 15.7844C98.5153 15.8721 98.5153 15.8721 98.5153 15.9598V22.1858C98.5153 24.6411 99.3941 25.518 101.679 25.518C103.612 25.518 104.579 24.5534 104.579 22.3612V15.9598H104.491Z" fill="white"/>
<path d="M112.048 20.9581L113.279 22.4489C115.827 25.518 116.354 25.8688 117.761 26.1318V26.2195C117.233 26.3072 116.794 26.3949 116.442 26.3949C115.124 26.3949 114.245 25.8688 111.697 22.7119L110.642 21.4843C110.379 21.1335 110.027 20.8704 109.851 20.7828V25.6057C109.851 25.6934 109.851 25.6934 109.939 25.7811L111.257 26.2195V26.3072H107.039V26.2195L108.269 25.7811C108.357 25.6934 108.357 25.6934 108.357 25.6057V15.9598C108.357 15.8721 108.357 15.8721 108.269 15.7844L107.039 15.346V15.2583H111.609C113.718 15.2583 115.3 16.2229 115.3 18.0644C115.212 19.8182 113.718 20.8704 112.048 20.9581ZM109.851 20.5197C110.379 20.6074 110.642 20.6074 111.082 20.6074C112.839 20.6074 113.718 19.6428 113.718 18.2398C113.718 16.5736 112.927 15.8721 111.433 15.8721C110.642 15.8721 109.851 16.0475 109.851 16.0475V20.5197V20.5197Z" fill="white"/>
<path d="M122.33 21.4842V25.5179C122.33 25.6056 122.33 25.6056 122.418 25.6933L123.736 26.1317V26.2194H119.518V26.1317L120.749 25.6933C120.836 25.6056 120.836 25.6056 120.836 25.5179V21.4842L117.585 15.9597C117.321 15.5213 116.882 15.2582 116.091 15.2582V15.1705C116.53 15.0828 117.145 14.9951 117.848 14.9951C118.376 14.9951 118.815 15.2582 119.079 15.6966L121.979 20.6949H122.067L124.527 15.872C124.527 15.7843 124.527 15.7843 124.44 15.6966L123.209 15.2582V15.1705H126.637V15.2582L125.582 15.6966C125.494 15.7843 125.406 15.7843 125.406 15.872L122.33 21.4842Z" fill="white"/>
<path d="M134.81 21.3089C134.107 21.3089 133.668 21.2212 133.052 21.0458V25.518C133.052 25.6057 133.052 25.6057 133.14 25.6934L134.459 26.1318V26.2195H130.24V26.1318L131.471 25.6934C131.558 25.6057 131.558 25.6057 131.558 25.518V15.9598C131.558 15.8721 131.558 15.8721 131.471 15.7844L130.24 15.346V15.2583H134.81C137.095 15.2583 138.589 16.3106 138.589 18.2398C138.589 20.1689 137.007 21.3089 134.81 21.3089ZM133.052 20.432C133.58 20.6074 134.107 20.6951 134.81 20.6951C136.128 20.6951 136.919 19.9935 136.919 18.3274C136.919 16.749 136.128 15.8721 134.546 15.8721C133.668 15.8721 132.965 16.0475 132.965 16.0475V20.432H133.052Z" fill="white"/>
<path d="M143.51 15.346L142.192 15.7844C142.104 15.8721 142.104 15.8721 142.104 15.9598V25.6934L146.059 25.6057C146.147 25.6057 146.235 25.6057 146.235 25.518L147.113 23.3258H147.201V26.4826H147.113C146.938 26.3949 146.586 26.3072 144.829 26.3072H139.292V26.2195L140.522 25.7811C140.61 25.6934 140.61 25.6934 140.61 25.6057V15.9598C140.61 15.8721 140.61 15.8721 140.522 15.7844L139.292 15.346V15.2583H143.51V15.346Z" fill="white"/>
<path d="M158.011 25.6057C158.011 25.6934 158.099 25.6934 158.186 25.6934L159.329 26.1318V26.2195H155.286V26.1318L156.429 25.6934C156.517 25.6934 156.517 25.6057 156.517 25.518L155.198 22.0981H151.244L150.013 25.518C150.013 25.6057 150.013 25.6057 150.101 25.6934L151.332 26.1318V26.2195H147.904V26.1318L148.959 25.6934C149.047 25.6934 149.135 25.6057 149.135 25.518L152.738 15.9598L152.474 15.2583H153.968L158.011 25.6057ZM151.507 21.4843H154.935L153.177 16.9244H153.089L151.507 21.4843Z" fill="white"/>
<path d="M164.69 15.083C166.096 15.083 167.238 15.3461 168.029 15.6968V18.766H167.941L166.975 16.3984C166.36 16.0476 165.569 15.6968 164.602 15.6968C162.141 15.6968 160.647 17.4506 160.647 20.4321C160.647 23.6766 162.405 25.6935 164.778 25.6935C165.744 25.6935 166.623 25.4304 167.063 25.0796L168.029 23.1505H168.117L167.941 25.6935C167.238 25.9565 166.096 26.3073 164.602 26.3073C161.262 26.3073 159.065 23.852 159.065 20.6075C159.065 17.5383 161.262 15.083 164.69 15.083Z" fill="white"/>
<path d="M172.336 20.2567H175.763C175.851 20.2567 175.851 20.2567 175.939 20.169L176.554 19.029H176.642V22.3613H176.554L175.939 21.0459C175.851 20.9582 175.851 20.9582 175.763 20.9582H172.336V25.6935L176.73 25.6058C176.818 25.6058 176.905 25.6058 176.905 25.5181L178.136 23.0628H178.224L177.96 26.4827H177.872C177.696 26.395 177.257 26.3073 175.411 26.3073H169.523V26.2196L170.754 25.7812C170.842 25.6935 170.842 25.6935 170.842 25.6058V15.9599C170.842 15.8722 170.842 15.8722 170.754 15.7845L169.523 15.3461V15.2584H176.73C177.169 15.2584 177.433 15.1707 177.609 15.083H177.696V18.1521H177.521L176.642 16.0476C176.642 15.9599 176.554 15.9599 176.466 15.9599L172.248 15.8722V20.2567H172.336Z" fill="white"/>
<path d="M181.036 17.4506C181.036 18.5906 181.827 19.029 183.409 19.8183C185.079 20.6075 186.66 21.309 186.66 23.1505C186.66 24.9919 185.342 26.3073 182.969 26.3073C181.388 26.3073 180.421 25.9565 179.718 25.6058V22.7997H179.806L180.772 25.1673C181.212 25.4304 181.827 25.7812 182.794 25.7812C184.288 25.7812 185.254 24.9919 185.254 23.852C185.254 22.5366 184.815 22.2736 182.618 21.1336C181.212 20.4321 179.806 19.7306 179.806 17.9768C179.806 16.1353 181.388 15.083 183.233 15.083C184.551 15.083 185.342 15.3461 186.045 15.6091V17.9768H185.957L185.166 16.3107C184.639 15.8722 184.112 15.6091 183.233 15.6091C182.003 15.6968 181.036 16.486 181.036 17.4506Z" fill="white"/>
<path d="M65.1201 36.83V31.0425H68.8111V31.4809H65.6474V33.6732H68.8111V34.1116H65.6474V36.83H65.1201Z" fill="white"/>
<path d="M70.1289 36.83V31.0425H70.655V36.83H70.1289Z" fill="white"/>
<path d="M76.5445 36.83L72.8535 31.8317V36.83H72.3262V31.0425H72.8535L76.5445 35.9531V31.0425H77.0718V36.83H76.5445Z" fill="white"/>
<path d="M78.7422 36.83V31.0425H82.4332V31.4809H79.2695V33.6732H82.4332V34.1116H79.2695V36.3916H82.4332V36.83H78.7422Z" fill="white"/>
<path d="M90.6939 36.83V34.0239H87.0029V36.83H86.4756V31.0425H87.0029V33.6732H90.6939V31.0425H91.2212V36.83H90.6939Z" fill="white"/>
<path d="M92.7148 33.936C92.7148 32.2699 93.8573 30.9546 95.527 30.9546C97.1968 30.9546 98.3392 32.2699 98.3392 33.936C98.3392 35.6021 97.1968 36.9175 95.527 36.9175C93.7694 37.0052 92.7148 35.6898 92.7148 33.936ZM97.812 33.936C97.812 32.4453 96.9331 31.393 95.527 31.393C94.1209 31.393 93.2421 32.4453 93.2421 33.936C93.2421 35.4268 94.1209 36.479 95.527 36.479C96.9331 36.5667 97.812 35.4268 97.812 33.936Z" fill="white"/>
<path d="M104.842 36.83V31.6563L102.733 36.83H102.557L100.448 31.6563V36.83H99.9209V31.0425H100.624L102.645 35.8654L104.666 31.0425H105.457V36.83H104.842Z" fill="white"/>
<path d="M107.039 36.83V31.0425H110.73V31.4809H107.566V33.6732H110.73V34.1116H107.566V36.3916H110.73V36.83H107.039Z" fill="white"/>
<path d="M111.873 36.0406L112.225 35.6898C112.576 36.1283 113.191 36.5667 114.07 36.5667C115.3 36.5667 115.652 35.8652 115.652 35.4268C115.652 33.673 112.137 34.6376 112.137 32.533C112.137 31.5684 113.016 30.9546 114.07 30.9546C114.949 30.9546 115.564 31.2177 116.091 31.7438L115.74 32.0946C115.3 31.5684 114.685 31.393 114.07 31.393C113.279 31.393 112.664 31.8315 112.664 32.4453C112.664 33.936 116.179 33.1468 116.179 35.2514C116.179 36.0406 115.652 36.9175 114.07 36.9175C113.103 37.0052 112.312 36.5667 111.873 36.0406Z" fill="white"/>
<path d="M119.87 33.936C119.87 32.2699 121.013 30.9546 122.682 30.9546C124.352 30.9546 125.495 32.2699 125.495 33.936C125.495 35.6021 124.352 36.9175 122.682 36.9175C121.013 37.0052 119.87 35.6898 119.87 33.936ZM125.055 33.936C125.055 32.4453 124.176 31.393 122.77 31.393C121.364 31.393 120.485 32.4453 120.485 33.936C120.485 35.4268 121.364 36.479 122.77 36.479C124.088 36.5667 125.055 35.4268 125.055 33.936Z" fill="white"/>
<path d="M127.076 36.83V31.0425H130.767V31.4809H127.603V33.6732H130.767V34.1116H127.603V36.83H127.076Z" fill="white"/>
<path d="M134.282 36.0406L134.634 35.6898C134.985 36.1283 135.6 36.5667 136.479 36.5667C137.71 36.5667 138.061 35.8652 138.061 35.4268C138.061 33.673 134.546 34.6376 134.546 32.533C134.546 31.5684 135.425 30.9546 136.479 30.9546C137.358 30.9546 137.973 31.2177 138.501 31.7438L138.149 32.0946C137.71 31.5684 137.094 31.393 136.479 31.393C135.688 31.393 135.073 31.8315 135.073 32.4453C135.073 33.936 138.588 33.1468 138.588 35.2514C138.588 36.0406 138.061 36.9175 136.479 36.9175C135.425 37.0052 134.722 36.5667 134.282 36.0406Z" fill="white"/>
<path d="M144.389 36.83L142.983 31.8317L141.577 36.83H141.05L139.38 31.0425H139.907L141.313 36.1285L142.719 31.0425H143.159L144.565 36.1285L145.971 31.0425H146.498L145.004 36.83H144.389Z" fill="white"/>
<path d="M147.816 36.83V31.0425H148.343V36.83H147.816Z" fill="white"/>
<path d="M151.508 36.83V31.4809H149.574V31.0425H153.88V31.4809H152.035V36.83H151.508Z" fill="white"/>
<path d="M154.935 36.83V36.3916L158.45 31.4809H154.935V31.0425H159.065V31.4809L155.55 36.3916H159.153V36.83H154.935Z" fill="white"/>
<path d="M160.56 36.83V31.0425H164.251V31.4809H161.087V33.6732H164.251V34.1116H161.087V36.3916H164.251V36.83H160.56Z" fill="white"/>
<path d="M169.172 36.83L167.502 34.3747H166.184V36.83H165.656V31.0425H167.853C168.82 31.0425 169.611 31.6563 169.611 32.7086C169.611 33.7609 168.82 34.3747 168.029 34.3747L169.699 36.83H169.172V36.83ZM169.172 32.7086C169.172 32.0071 168.644 31.4809 167.853 31.4809H166.184V34.0239H167.853C168.644 34.0239 169.172 33.4978 169.172 32.7086Z" fill="white"/>
<path d="M171.192 36.83V31.0425H171.72V36.3916H174.532V36.83H171.192Z" fill="white"/>
<path d="M180.069 36.83L179.454 35.427H176.378L175.763 36.83H175.147L177.52 31.0425H178.135L180.508 36.83H180.069ZM177.96 31.5686L176.554 34.9885H179.278L177.96 31.5686Z" fill="white"/>
<path d="M185.957 36.83L182.266 31.8317V36.83H181.738V31.0425H182.266L185.957 35.9531V31.0425H186.484V36.83H185.957Z" fill="white"/>
<path d="M188.154 36.83V31.0425H189.999C191.845 31.0425 192.987 32.3578 192.987 33.9362C192.987 35.5147 191.845 36.83 189.999 36.83H188.154V36.83ZM192.46 33.9362C192.46 32.5332 191.581 31.4809 189.999 31.4809H188.593V36.3916H189.999C191.581 36.3916 192.46 35.3393 192.46 33.9362Z" fill="white"/>
<path d="M14.6764 15.9596C14.5006 15.9596 14.5006 15.8719 14.5006 15.7842C14.5006 15.6089 14.5885 15.1704 14.94 15.1704C16.2582 15.1704 17.4886 15.2581 18.8068 15.2581C19.9493 15.2581 21.0917 15.1704 22.2342 15.1704C22.4099 15.1704 22.4978 15.1704 22.4978 15.3458C22.4978 15.9596 22.3221 16.0473 21.619 16.0473C20.0371 16.2227 19.8614 16.4858 19.1583 19.9057C18.8947 21.3087 16.434 33.4099 16.434 34.8129C16.434 35.9529 17.4886 35.9529 18.8068 35.9529C24.3433 35.9529 25.4858 34.6375 26.0131 32.9714C26.1888 32.4453 26.1888 32.3576 26.3646 32.3576C26.5404 32.3576 26.8919 32.3576 26.8919 32.6207C26.8919 32.7084 26.4525 34.4621 26.1888 35.2514C25.6615 36.7421 25.4858 37.0051 23.816 37.0051C21.619 37.0051 19.422 36.9175 17.2249 36.9175C14.3249 36.9175 12.5672 37.0051 11.3369 37.0051C11.249 37.0051 11.1611 37.0051 11.1611 36.8298C11.1611 36.2159 11.4248 36.2159 12.0399 36.1283C13.6218 35.9529 13.7976 35.6898 14.5006 32.2699C14.7643 30.9546 17.2249 18.9411 17.2249 17.538C17.0492 16.2227 16.2582 16.135 14.6764 15.9596Z" fill="white"/>
<path d="M23.0254 19.555C23.0254 16.0474 25.6618 14.9951 28.3861 14.9951C28.7377 14.9951 29.8801 14.9951 31.0226 15.0828C32.165 15.0828 33.1317 15.1705 33.659 15.1705C34.8015 15.1705 36.0318 15.0828 37.1743 15.0828C37.5258 15.0828 37.6137 15.5213 37.6137 15.6966C37.6137 15.7843 37.6137 15.7843 37.4379 15.872C35.9439 16.0474 35.0651 16.1351 35.0651 17.5381C35.0651 18.8535 37.5258 30.9546 37.7894 32.27C38.4925 35.6899 38.6683 35.953 40.2501 36.1283C40.9532 36.216 41.1289 36.216 41.1289 36.8299C41.1289 37.0052 41.041 37.0052 40.9532 37.0052C39.6349 37.0052 38.4046 36.9175 37.0864 36.9175C35.6803 36.9175 34.1863 37.0052 32.7802 37.0052C32.4287 37.0052 32.3408 36.5668 32.3408 36.3914C32.3408 36.216 32.4287 36.216 33.1317 36.216C34.6257 36.1283 35.7682 36.1283 35.7682 34.6376C35.7682 33.1469 32.6044 17.6258 32.5166 17.2751C32.3408 16.6612 32.165 16.1351 29.968 16.1351C27.1558 16.1351 25.5739 17.275 25.5739 19.9934C25.5739 22.5364 27.1558 25.3425 31.5499 25.3425C32.5166 25.3425 32.5166 25.3425 32.5166 25.6056C32.5166 26.3071 32.2529 26.3071 31.462 26.3071C26.8922 26.2194 23.0254 23.6764 23.0254 19.555Z" fill="white"/>
</svg>
