<svg width="193" height="52" viewBox="0 0 193 52" fill="none" xmlns="http://www.w3.org/2000/svg">
<path d="M25.6613 0.613828C39.4587 0.613828 50.7075 11.7504 50.7075 25.6054C50.7075 39.4604 39.4587 50.5093 25.6613 50.5093C11.864 50.5093 0.615169 39.3727 0.615169 25.6054C0.615169 11.8381 11.7761 0.613828 25.6613 0.613828ZM25.6613 0C11.5124 0 0 11.4874 0 25.6054C0 39.7234 11.5124 51.2108 25.6613 51.2108C39.8102 51.2108 51.3227 39.7234 51.3227 25.6054C51.3227 11.4874 39.7223 0 25.6613 0Z" fill="#161616"/>
<path d="M68.9869 14.9075L67.6686 15.346C67.5808 15.4337 67.5808 15.4337 67.5808 15.5213V25.2549L71.5354 25.1672C71.6233 25.1672 71.7112 25.1672 71.7112 25.0795L72.59 22.8873H72.6779V26.0441H72.59C72.4142 25.9564 72.0627 25.8687 70.3051 25.8687H64.7686V25.781L65.9989 25.3426C66.0868 25.2549 66.0868 25.2549 66.0868 25.1672V15.5213C66.0868 15.4337 66.0868 15.4337 65.9989 15.346L64.7686 14.9075V14.8198H68.9869V14.9075Z" fill="#161616"/>
<path d="M81.9932 15.5213C81.9932 15.4337 81.9932 15.4337 81.9053 15.346L80.4992 14.9075V14.8198H83.9266V14.9075L82.872 15.346C82.7841 15.346 82.7841 15.4337 82.7841 15.5213V22.0104C82.7841 24.4657 81.378 25.9564 78.9174 25.9564C76.3688 25.9564 74.5233 24.5534 74.5233 21.9227V15.5213C74.5233 15.4337 74.5233 15.4337 74.4354 15.346L73.2051 14.9075V14.8198H77.1597V14.9075L76.1052 15.346C76.0173 15.4337 76.0173 15.4337 76.0173 15.5213V21.7473C76.0173 24.2026 76.8961 25.0795 79.181 25.0795C81.1144 25.0795 82.0811 24.1149 82.0811 21.9227V15.5213H81.9932Z" fill="#161616"/>
<path d="M85.7723 15.346L84.7178 14.9075V14.8198H88.7603V14.9075L87.7936 15.346C87.7057 15.346 87.7057 15.4337 87.7057 15.5213L89.9906 19.2043H90.0785L92.3634 15.5213C92.3634 15.4337 92.3634 15.4337 92.2756 15.346L91.0452 14.9075V14.8198H94.4726V14.9075L93.418 15.346C93.3301 15.4337 93.2422 15.4337 93.2422 15.5213L90.43 19.7304L93.8574 25.0795C93.8574 25.1672 93.9453 25.1672 94.0332 25.1672L95.1756 25.6057V25.6933H91.1331V25.6057L92.0998 25.1672C92.1877 25.1672 92.1877 25.0795 92.1877 24.9918L89.5512 20.7827L86.8269 24.9918C86.8269 25.0795 86.8269 25.0795 86.9148 25.1672L88.1451 25.6057V25.6933H84.6299V25.6057L85.7723 25.1672C85.8602 25.1672 85.8602 25.1672 85.9481 25.0795L89.2876 20.2566L86.1239 15.346C85.8602 15.4337 85.8602 15.346 85.7723 15.346Z" fill="#161616"/>
<path d="M104.052 15.5213C104.052 15.4337 104.052 15.4337 103.964 15.346L102.558 14.9075V14.8198H105.985V14.9075L104.931 15.346C104.843 15.346 104.843 15.4337 104.843 15.5213V22.0104C104.843 24.4657 103.437 25.9564 100.976 25.9564C98.4274 25.9564 96.5819 24.5534 96.5819 21.9227V15.5213C96.5819 15.4337 96.5819 15.4337 96.494 15.346L95.2637 14.9075V14.8198H99.2183V14.9075L98.1638 15.346C98.0759 15.4337 98.0759 15.4337 98.0759 15.5213V21.7473C98.0759 24.2026 98.9547 25.0795 101.24 25.0795C103.173 25.0795 104.14 24.1149 104.14 21.9227V15.5213H104.052Z" fill="#161616"/>
<path d="M111.609 20.5197L112.839 22.0104C115.388 25.0795 115.915 25.4303 117.321 25.6933V25.781C116.794 25.8687 116.354 25.9564 116.003 25.9564C114.685 25.9564 113.806 25.4303 111.257 22.2735L110.203 21.0458C109.939 20.695 109.588 20.432 109.412 20.3443V25.1672C109.412 25.2549 109.412 25.2549 109.5 25.3426L110.818 25.781V25.8687H106.6V25.781L107.83 25.3426C107.918 25.2549 107.918 25.2549 107.918 25.1672V15.5213C107.918 15.4337 107.918 15.4337 107.83 15.346L106.6 14.9075V14.8198H111.169C113.279 14.8198 114.86 15.7844 114.86 17.6259C114.773 19.3797 113.279 20.432 111.609 20.5197ZM109.412 20.0812C109.939 20.1689 110.203 20.1689 110.642 20.1689C112.4 20.1689 113.279 19.2043 113.279 17.8013C113.279 16.1352 112.488 15.4337 110.994 15.4337C110.203 15.4337 109.412 15.609 109.412 15.609V20.0812V20.0812Z" fill="#161616"/>
<path d="M121.891 21.0457V25.0794C121.891 25.1671 121.891 25.1671 121.979 25.2548L123.297 25.6932V25.7809H119.079V25.6932L120.309 25.2548C120.397 25.1671 120.397 25.1671 120.397 25.0794V21.0457L117.145 15.5212C116.882 15.0828 116.442 14.8197 115.651 14.8197V14.732C116.091 14.6443 116.706 14.5566 117.409 14.5566C117.936 14.5566 118.376 14.8197 118.639 15.2582L121.539 20.2565H121.627L124.088 15.4335C124.088 15.3458 124.088 15.3458 124 15.2582L122.77 14.8197V14.732H126.197V14.8197L125.143 15.2582C125.055 15.3458 124.967 15.3458 124.967 15.4335L121.891 21.0457Z" fill="#161616"/>
<path d="M134.371 20.8704C133.668 20.8704 133.228 20.7827 132.613 20.6073V25.0795C132.613 25.1672 132.613 25.1672 132.701 25.2549L134.019 25.6933V25.781H129.801V25.6933L131.031 25.2549C131.119 25.1672 131.119 25.1672 131.119 25.0795V15.5213C131.119 15.4337 131.119 15.4337 131.031 15.346L129.801 14.9075V14.8198H134.371C136.656 14.8198 138.15 15.8721 138.15 17.8013C138.15 19.7304 136.568 20.8704 134.371 20.8704ZM132.613 19.9935C133.14 20.1689 133.668 20.2566 134.371 20.2566C135.689 20.2566 136.48 19.5551 136.48 17.889C136.48 16.3105 135.689 15.4337 134.107 15.4337C133.228 15.4337 132.525 15.609 132.525 15.609V19.9935H132.613Z" fill="#161616"/>
<path d="M143.071 14.9075L141.753 15.346C141.665 15.4337 141.665 15.4337 141.665 15.5213V25.2549L145.619 25.1672C145.707 25.1672 145.795 25.1672 145.795 25.0795L146.674 22.8873H146.762V26.0441H146.674C146.498 25.9564 146.147 25.8687 144.389 25.8687H138.853V25.781L140.083 25.3426C140.171 25.2549 140.171 25.2549 140.171 25.1672V15.5213C140.171 15.4337 140.171 15.4337 140.083 15.346L138.853 14.9075V14.8198H143.071V14.9075Z" fill="#161616"/>
<path d="M157.571 25.1672C157.571 25.2549 157.659 25.2549 157.747 25.2549L158.889 25.6933V25.781H154.847V25.6933L155.989 25.2549C156.077 25.2549 156.077 25.1672 156.077 25.0795L154.759 21.6596H150.804L149.574 25.0795C149.574 25.1672 149.574 25.1672 149.662 25.2549L150.892 25.6933V25.781H147.465V25.6933L148.519 25.2549C148.607 25.2549 148.695 25.1672 148.695 25.0795L152.298 15.5213L152.035 14.8198H153.529L157.571 25.1672ZM151.068 21.0458H154.495L152.738 16.4859H152.65L151.068 21.0458Z" fill="#161616"/>
<path d="M164.25 14.6445C165.656 14.6445 166.799 14.9076 167.59 15.2584V18.3275H167.502L166.535 15.9599C165.92 15.6091 165.129 15.2584 164.162 15.2584C161.702 15.2584 160.208 17.0122 160.208 19.9936C160.208 23.2381 161.965 25.255 164.338 25.255C165.305 25.255 166.184 24.9919 166.623 24.6412L167.59 22.712H167.678L167.502 25.255C166.799 25.5181 165.656 25.8688 164.162 25.8688C160.823 25.8688 158.626 23.4135 158.626 20.169C158.626 17.0998 160.823 14.6445 164.25 14.6445Z" fill="#161616"/>
<path d="M171.896 19.8182H175.323C175.411 19.8182 175.411 19.8182 175.499 19.7305L176.114 18.5906H176.202V21.9228H176.114L175.499 20.6074C175.411 20.5197 175.411 20.5197 175.323 20.5197H171.896V25.255L176.29 25.1673C176.378 25.1673 176.466 25.1673 176.466 25.0796L177.696 22.6243H177.784L177.52 26.0442H177.432C177.256 25.9565 176.817 25.8688 174.972 25.8688H169.083V25.7811L170.314 25.3427C170.402 25.255 170.402 25.255 170.402 25.1673V15.5214C170.402 15.4337 170.402 15.4337 170.314 15.346L169.083 14.9076V14.8199H176.29C176.729 14.8199 176.993 14.7322 177.169 14.6445H177.256V17.7137H177.081L176.202 15.6091C176.202 15.5214 176.114 15.5214 176.026 15.5214L171.808 15.4337V19.8182H171.896Z" fill="#161616"/>
<path d="M180.596 17.0122C180.596 18.1521 181.387 18.5906 182.969 19.3798C184.639 20.169 186.22 20.8705 186.22 22.712C186.22 24.5535 184.902 25.8688 182.529 25.8688C180.948 25.8688 179.981 25.5181 179.278 25.1673V22.3612H179.366L180.332 24.7288C180.772 24.9919 181.387 25.3427 182.354 25.3427C183.848 25.3427 184.814 24.5535 184.814 23.4135C184.814 22.0982 184.375 21.8351 182.178 20.6951C180.772 19.9936 179.366 19.2921 179.366 17.5383C179.366 15.6968 180.948 14.6445 182.793 14.6445C184.111 14.6445 184.902 14.9076 185.605 15.1707V17.5383H185.517L184.726 15.8722C184.199 15.4337 183.672 15.1707 182.793 15.1707C181.563 15.2584 180.596 16.0476 180.596 17.0122Z" fill="#161616"/>
<path d="M64.6807 36.3915V30.604H68.3717V31.0425H65.208V33.2347H68.3717V33.6731H65.208V36.3915H64.6807Z" fill="#161616"/>
<path d="M69.6895 36.3915V30.604H70.2156V36.3915H69.6895Z" fill="#161616"/>
<path d="M76.105 36.3915L72.414 31.3932V36.3915H71.8867V30.604H72.414L76.105 35.5146V30.604H76.6323V36.3915H76.105Z" fill="#161616"/>
<path d="M78.3027 36.3915V30.604H81.9938V31.0425H78.83V33.2347H81.9938V33.6731H78.83V35.9531H81.9938V36.3915H78.3027Z" fill="#161616"/>
<path d="M90.2544 36.3915V33.5855H86.5634V36.3915H86.0361V30.604H86.5634V33.2347H90.2544V30.604H90.7817V36.3915H90.2544Z" fill="#161616"/>
<path d="M92.2754 33.4976C92.2754 31.8315 93.4178 30.5161 95.0876 30.5161C96.7573 30.5161 97.8998 31.8315 97.8998 33.4976C97.8998 35.1637 96.7573 36.479 95.0876 36.479C93.33 36.5667 92.2754 35.2514 92.2754 33.4976ZM97.3725 33.4976C97.3725 32.0068 96.4937 30.9546 95.0876 30.9546C93.6815 30.9546 92.8027 32.0068 92.8027 33.4976C92.8027 34.9883 93.6815 36.0406 95.0876 36.0406C96.4937 36.1283 97.3725 34.9883 97.3725 33.4976Z" fill="#161616"/>
<path d="M104.403 36.3915V31.2178L102.294 36.3915H102.118L100.009 31.2178V36.3915H99.4814V30.604H100.184L102.206 35.4269L104.227 30.604H105.018V36.3915H104.403Z" fill="#161616"/>
<path d="M106.6 36.3915V30.604H110.291V31.0425H107.127V33.2347H110.291V33.6731H107.127V35.9531H110.291V36.3915H106.6Z" fill="#161616"/>
<path d="M111.434 35.6021L111.785 35.2514C112.137 35.6898 112.752 36.1283 113.631 36.1283C114.861 36.1283 115.212 35.4267 115.212 34.9883C115.212 33.2345 111.697 34.1991 111.697 32.0945C111.697 31.1299 112.576 30.5161 113.631 30.5161C114.509 30.5161 115.125 30.7792 115.652 31.3053L115.3 31.6561C114.861 31.1299 114.246 30.9546 113.631 30.9546C112.84 30.9546 112.225 31.393 112.225 32.0068C112.225 33.4976 115.74 32.7084 115.74 34.8129C115.74 35.6021 115.212 36.479 113.631 36.479C112.664 36.5667 111.873 36.1283 111.434 35.6021Z" fill="#161616"/>
<path d="M119.431 33.4976C119.431 31.8315 120.573 30.5161 122.243 30.5161C123.913 30.5161 125.055 31.8315 125.055 33.4976C125.055 35.1637 123.913 36.479 122.243 36.479C120.573 36.5667 119.431 35.2514 119.431 33.4976ZM124.616 33.4976C124.616 32.0068 123.737 30.9546 122.331 30.9546C120.925 30.9546 120.046 32.0068 120.046 33.4976C120.046 34.9883 120.925 36.0406 122.331 36.0406C123.649 36.1283 124.616 34.9883 124.616 33.4976Z" fill="#161616"/>
<path d="M126.637 36.3915V30.604H130.328V31.0425H127.164V33.2347H130.328V33.6731H127.164V36.3915H126.637Z" fill="#161616"/>
<path d="M133.843 35.6021L134.194 35.2514C134.546 35.6898 135.161 36.1283 136.04 36.1283C137.27 36.1283 137.622 35.4267 137.622 34.9883C137.622 33.2345 134.106 34.1991 134.106 32.0945C134.106 31.1299 134.985 30.5161 136.04 30.5161C136.919 30.5161 137.534 30.7792 138.061 31.3053L137.71 31.6561C137.27 31.1299 136.655 30.9546 136.04 30.9546C135.249 30.9546 134.634 31.393 134.634 32.0068C134.634 33.4976 138.149 32.7084 138.149 34.8129C138.149 35.6021 137.622 36.479 136.04 36.479C134.985 36.5667 134.282 36.1283 133.843 35.6021Z" fill="#161616"/>
<path d="M143.95 36.3915L142.544 31.3932L141.137 36.3915H140.61L138.94 30.604H139.468L140.874 35.69L142.28 30.604H142.719L144.125 35.69L145.532 30.604H146.059L144.565 36.3915H143.95Z" fill="#161616"/>
<path d="M147.377 36.3915V30.604H147.903V36.3915H147.377Z" fill="#161616"/>
<path d="M151.068 36.3915V31.0425H149.135V30.604H153.441V31.0425H151.595V36.3915H151.068Z" fill="#161616"/>
<path d="M154.495 36.3915V35.9531L158.01 31.0425H154.495V30.604H158.626V31.0425L155.11 35.9531H158.713V36.3915H154.495Z" fill="#161616"/>
<path d="M160.12 36.3915V30.604H163.811V31.0425H160.647V33.2347H163.811V33.6731H160.647V35.9531H163.811V36.3915H160.12Z" fill="#161616"/>
<path d="M168.732 36.3915L167.062 33.9362H165.744V36.3915H165.217V30.604H167.414C168.381 30.604 169.171 31.2178 169.171 32.2701C169.171 33.3224 168.381 33.9362 167.59 33.9362L169.259 36.3915H168.732V36.3915ZM168.732 32.2701C168.732 31.5686 168.205 31.0425 167.414 31.0425H165.744V33.5855H167.414C168.205 33.5855 168.732 33.0593 168.732 32.2701Z" fill="#161616"/>
<path d="M170.753 36.3915V30.604H171.281V35.9531H174.093V36.3915H170.753Z" fill="#161616"/>
<path d="M179.629 36.3915L179.014 34.9885H175.938L175.323 36.3915H174.708L177.081 30.604H177.696L180.069 36.3915H179.629ZM177.52 31.1301L176.114 34.55H178.838L177.52 31.1301Z" fill="#161616"/>
<path d="M185.518 36.3915L181.827 31.3932V36.3915H181.299V30.604H181.827L185.518 35.5146V30.604H186.045V36.3915H185.518Z" fill="#161616"/>
<path d="M187.714 36.3915V30.604H189.56C191.405 30.604 192.548 31.9193 192.548 33.4978C192.548 35.0762 191.405 36.3915 189.56 36.3915H187.714V36.3915ZM192.021 33.4978C192.021 32.0947 191.142 31.0425 189.56 31.0425H188.154V35.9531H189.56C191.142 35.9531 192.021 34.9008 192.021 33.4978Z" fill="#161616"/>
<path d="M14.2369 15.5211C14.0612 15.5211 14.0612 15.4335 14.0612 15.3458C14.0612 15.1704 14.149 14.7319 14.5006 14.7319C15.8188 14.7319 17.0491 14.8196 18.3674 14.8196C19.5098 14.8196 20.6523 14.7319 21.7947 14.7319C21.9705 14.7319 22.0584 14.7319 22.0584 14.9073C22.0584 15.5211 21.8826 15.6088 21.1796 15.6088C19.5977 15.7842 19.4219 16.0473 18.7189 19.4672C18.4552 20.8702 15.9946 32.9714 15.9946 34.3744C15.9946 35.5144 17.0491 35.5144 18.3674 35.5144C23.9039 35.5144 25.0463 34.199 25.5736 32.5329C25.7494 32.0068 25.7494 31.9191 25.9251 31.9191C26.1009 31.9191 26.4524 31.9191 26.4524 32.1822C26.4524 32.2699 26.013 34.0237 25.7494 34.8129C25.2221 36.3036 25.0463 36.5667 23.3766 36.5667C21.1796 36.5667 18.9825 36.479 16.7855 36.479C13.8854 36.479 12.1278 36.5667 10.8974 36.5667C10.8096 36.5667 10.7217 36.5667 10.7217 36.3913C10.7217 35.7775 10.9853 35.7775 11.6005 35.6898C13.1824 35.5144 13.3581 35.2513 14.0612 31.8314C14.3248 30.5161 16.7855 18.5026 16.7855 17.0996C16.6097 15.7842 15.8188 15.6965 14.2369 15.5211Z" fill="#161616"/>
<path d="M22.5859 19.1165C22.5859 15.6089 25.2224 14.5566 27.9467 14.5566C28.2982 14.5566 29.4407 14.5566 30.5831 14.6443C31.7256 14.6443 32.6923 14.732 33.2196 14.732C34.362 14.732 35.5924 14.6443 36.7348 14.6443C37.0863 14.6443 37.1742 15.0828 37.1742 15.2582C37.1742 15.3458 37.1742 15.3458 36.9985 15.4335C35.5045 15.6089 34.6257 15.6966 34.6257 17.0996C34.6257 18.415 37.0863 30.5162 37.35 31.8315C38.053 35.2514 38.2288 35.5145 39.8107 35.6899C40.5137 35.7776 40.6895 35.7776 40.6895 36.3914C40.6895 36.5668 40.6016 36.5668 40.5137 36.5668C39.1955 36.5668 37.9652 36.4791 36.6469 36.4791C35.2408 36.4791 33.7469 36.5668 32.3408 36.5668C31.9892 36.5668 31.9014 36.1283 31.9014 35.9529C31.9014 35.7776 31.9892 35.7776 32.6923 35.7776C34.1863 35.6899 35.3287 35.6899 35.3287 34.1991C35.3287 32.7084 32.165 17.1873 32.0771 16.8366C31.9014 16.2227 31.7256 15.6966 29.5286 15.6966C26.7164 15.6966 25.1345 16.8366 25.1345 19.555C25.1345 22.098 26.7164 24.904 31.1104 24.904C32.0771 24.904 32.0771 24.904 32.0771 25.1671C32.0771 25.8686 31.8135 25.8686 31.0225 25.8686C26.4527 25.7809 22.5859 23.2379 22.5859 19.1165Z" fill="#161616"/>
</svg>
