<svg width="24" height="24" viewBox="0 0 24 24" fill="none" xmlns="http://www.w3.org/2000/svg">
<path opacity="0.4" d="M12.525 19.8655L20.1281 12.2718C21.9937 10.3968 22.2656 7.33114 20.5031 5.37176C20.0611 4.87799 19.523 4.47952 18.9218 4.20071C18.3206 3.9219 17.6689 3.7686 17.0064 3.75018C16.344 3.73175 15.6847 3.84859 15.0689 4.09355C14.4531 4.33851 13.8938 4.70645 13.425 5.17489L12 6.60926L10.7625 5.37176C8.89686 3.50614 5.83123 3.23426 3.86248 4.99676C3.36934 5.43943 2.97162 5.97799 2.69363 6.57955C2.41564 7.18111 2.26322 7.83303 2.24567 8.49548C2.22812 9.15793 2.34582 9.817 2.59157 10.4324C2.83732 11.0479 3.20597 11.6067 3.67498 12.0749L11.4656 19.8655C11.6062 20.0058 11.7967 20.0845 11.9953 20.0845C12.1939 20.0845 12.3844 20.0058 12.525 19.8655V19.8655Z" fill="white"/>
<path d="M12 20.8313C11.8028 20.833 11.6073 20.7949 11.4253 20.7192C11.2432 20.6435 11.0784 20.5317 10.9406 20.3907L3.1406 12.6C2.60167 12.0594 2.17841 11.4148 1.89659 10.7054C1.61477 9.99598 1.4803 9.23663 1.50135 8.47358C1.5224 7.71053 1.69853 6.95975 2.01903 6.26696C2.33953 5.57416 2.79769 4.95384 3.3656 4.44378C3.90973 3.95437 4.54766 3.58067 5.24065 3.34537C5.93364 3.11008 6.66722 3.0181 7.39685 3.07503C8.86951 3.16998 10.2566 3.80018 11.2968 4.84691L12 5.54066L12.8906 4.65003C13.4307 4.10904 14.0754 3.68382 14.7854 3.40033C15.4953 3.11685 16.2556 2.98105 17.0198 3.00123C17.784 3.02141 18.536 3.19714 19.23 3.5177C19.924 3.83826 20.5454 4.29692 21.0562 4.86566C22.0406 5.95316 22.5187 7.38753 22.425 8.90628C22.3295 10.3761 21.6992 11.7601 20.6531 12.7969L13.0594 20.3907C12.9216 20.5317 12.7567 20.6435 12.5747 20.7192C12.3926 20.7949 12.1971 20.833 12 20.8313Z" fill="#996F2A"/>
</svg>
