<svg width="24" height="24" viewBox="0 0 24 24" fill="none" xmlns="http://www.w3.org/2000/svg">
<path opacity="0.4" d="M12.525 19.8655L20.1282 12.2718C21.9938 10.3968 22.2657 7.33114 20.5032 5.37176C20.0612 4.87799 19.5231 4.47952 18.9219 4.20071C18.3207 3.9219 17.6689 3.7686 17.0065 3.75018C16.344 3.73175 15.6848 3.84859 15.069 4.09355C14.4532 4.33851 13.8938 4.70645 13.425 5.17489L12 6.60926L10.7625 5.37176C8.89692 3.50614 5.8313 3.23426 3.86255 4.99676C3.3694 5.43943 2.97168 5.97799 2.69369 6.57955C2.4157 7.18111 2.26328 7.83303 2.24573 8.49548C2.22818 9.15793 2.34588 9.817 2.59163 10.4324C2.83738 11.0479 3.20603 11.6067 3.67505 12.0749L11.4657 19.8655C11.6063 20.0058 11.7968 20.0845 11.9954 20.0845C12.194 20.0845 12.3844 20.0058 12.525 19.8655V19.8655Z" fill="white"/>
<path d="M12 20.8313C11.8029 20.833 11.6074 20.7949 11.4253 20.7192C11.2433 20.6435 11.0784 20.5317 10.9407 20.3907L3.14066 12.6C2.60173 12.0594 2.17847 11.4148 1.89665 10.7054C1.61484 9.99598 1.48036 9.23663 1.50141 8.47358C1.52246 7.71053 1.69859 6.95975 2.01909 6.26696C2.33959 5.57416 2.79775 4.95384 3.36566 4.44378C3.90979 3.95437 4.54772 3.58067 5.24071 3.34537C5.9337 3.11008 6.66728 3.0181 7.39691 3.07503C8.86957 3.16998 10.2567 3.80018 11.2969 4.84691L12 5.54066L12.8907 4.65003C13.4308 4.10904 14.0755 3.68382 14.7854 3.40033C15.4954 3.11685 16.2557 2.98105 17.0199 3.00123C17.784 3.02141 18.5361 3.19714 19.2301 3.5177C19.9241 3.83826 20.5455 4.29692 21.0563 4.86566C22.0407 5.95316 22.5188 7.38753 22.425 8.90628C22.3296 10.3761 21.6993 11.7601 20.6532 12.7969L13.0594 20.3907C12.9217 20.5317 12.7568 20.6435 12.5747 20.7192C12.3927 20.7949 12.1972 20.833 12 20.8313V20.8313ZM7.03129 4.56566C6.05273 4.55402 5.10442 4.90463 4.36879 5.55003C3.95124 5.92456 3.61446 6.38032 3.37904 6.88943C3.14362 7.39855 3.0145 7.95033 2.99958 8.51104C2.98467 9.07175 3.08426 9.62962 3.29228 10.1505C3.5003 10.6714 3.81237 11.1445 4.20941 11.5407L12.525 19.8657L12 19.3313L19.5938 11.7375C21.225 10.1063 21.3844 7.47191 19.9407 5.86878C19.567 5.4515 19.112 5.11489 18.6037 4.87957C18.0954 4.64426 17.5443 4.51519 16.9844 4.50027C16.4244 4.48534 15.8673 4.58489 15.3472 4.7928C14.827 5.00071 14.3548 5.31262 13.9594 5.70941L12.525 7.13441C12.3844 7.27467 12.1939 7.35344 11.9953 7.35344C11.7968 7.35344 11.6063 7.27467 11.4657 7.13441L10.2375 5.90628C9.38846 5.05249 8.23539 4.57036 7.03129 4.56566V4.56566Z" fill="#161616"/>
</svg>
