<svg width="20" height="20" viewBox="0 0 20 20" fill="none" xmlns="http://www.w3.org/2000/svg">
<path d="M10.0006 17.3595C9.83634 17.361 9.67343 17.3292 9.52172 17.2661C9.37001 17.203 9.23263 17.1099 9.11783 16.9923L2.61783 10.5001C2.16872 10.0497 1.816 9.51246 1.58116 8.92128C1.34631 8.33011 1.23424 7.69732 1.25178 7.06144C1.26932 6.42557 1.41611 5.79992 1.68319 5.22258C1.95027 4.64525 2.33207 4.12833 2.80533 3.70327C3.25877 3.29543 3.79037 2.98401 4.36787 2.78793C4.94536 2.59185 5.55668 2.51521 6.1647 2.56265C7.39192 2.64177 8.54784 3.16694 9.4147 4.03921L10.0006 4.61734L10.7428 3.87515C11.1929 3.42432 11.7302 3.06997 12.3218 2.83373C12.9134 2.5975 13.547 2.48433 14.1838 2.50115C14.8207 2.51796 15.4474 2.66441 16.0257 2.93154C16.604 3.19867 17.1218 3.58088 17.5475 4.05484C18.3678 4.96109 18.7663 6.1564 18.6881 7.42202C18.6086 8.64685 18.0833 9.80016 17.2116 10.6642L10.8835 16.9923C10.7687 17.1099 10.6313 17.203 10.4796 17.2661C10.3278 17.3292 10.1649 17.361 10.0006 17.3595V17.3595ZM5.86002 3.80484C5.04455 3.79514 4.2543 4.08731 3.64127 4.62515C3.29331 4.93726 3.01266 5.31705 2.81647 5.74132C2.62029 6.16558 2.51269 6.62539 2.50026 7.09265C2.48783 7.55991 2.57083 8.0248 2.74417 8.45889C2.91752 8.89299 3.17758 9.28717 3.50845 9.61734L10.4381 16.5548L10.0006 16.1095L16.3288 9.7814C17.6881 8.42202 17.821 6.22671 16.6178 4.89077C16.3064 4.54304 15.9273 4.26253 15.5037 4.06643C15.0801 3.87034 14.6209 3.76278 14.1543 3.75034C13.6876 3.73791 13.2234 3.82086 12.7899 3.99412C12.3565 4.16738 11.9629 4.4273 11.6335 4.75796L10.4381 5.94546C10.321 6.06234 10.1622 6.12799 9.99673 6.12799C9.83124 6.12799 9.67249 6.06234 9.55533 5.94546L8.53189 4.92202C7.82433 4.21053 6.86343 3.80876 5.86002 3.80484V3.80484Z" fill="#161616"/>
</svg>
