<svg width="25" height="25" viewBox="0 0 25 25" fill="none" xmlns="http://www.w3.org/2000/svg">
<g opacity="0.8">
<path d="M12.332 3.5L1.33203 11.9L2.54203 13.49L4.33203 12.12V21.5H20.332V12.12L22.122 13.48L23.332 11.9L12.332 3.5ZM18.332 19.5H6.33203V10.6L12.332 6.02L18.332 10.6V19.5ZM9.33203 14.5C9.33203 15.05 8.88203 15.5 8.33203 15.5C7.78203 15.5 7.33203 15.05 7.33203 14.5C7.33203 13.95 7.78203 13.5 8.33203 13.5C8.88203 13.5 9.33203 13.95 9.33203 14.5ZM12.332 13.5C12.882 13.5 13.332 13.95 13.332 14.5C13.332 15.05 12.882 15.5 12.332 15.5C11.782 15.5 11.332 15.05 11.332 14.5C11.332 13.95 11.782 13.5 12.332 13.5ZM15.332 14.5C15.332 13.95 15.782 13.5 16.332 13.5C16.882 13.5 17.332 13.95 17.332 14.5C17.332 15.05 16.882 15.5 16.332 15.5C15.782 15.5 15.332 15.05 15.332 14.5Z" fill="#9F815C" fill-opacity="0.8"/>
</g>
</svg>
