<svg width="24" height="25" viewBox="0 0 24 25" fill="none" xmlns="http://www.w3.org/2000/svg">
<path d="M4 11C3.17 11 2.5 11.67 2.5 12.5C2.5 13.33 3.17 14 4 14C4.83 14 5.5 13.33 5.5 12.5C5.5 11.67 4.83 11 4 11ZM4 5C3.17 5 2.5 5.67 2.5 6.5C2.5 7.33 3.17 8 4 8C4.83 8 5.5 7.33 5.5 6.5C5.5 5.67 4.83 5 4 5ZM4 17C3.17 17 2.5 17.68 2.5 18.5C2.5 19.32 3.18 20 4 20C4.82 20 5.5 19.32 5.5 18.5C5.5 17.68 4.83 17 4 17ZM7 19.5H21V17.5H7V19.5ZM7 13.5H21V11.5H7V13.5ZM7 5.5V7.5H21V5.5H7Z" fill="#9F815C" fill-opacity="0.8"/>
</svg>
