<svg width="20" height="20" viewBox="0 0 20 20" fill="none" xmlns="http://www.w3.org/2000/svg">
<path d="M9.99967 9.99996C10.458 9.99996 10.8505 9.83663 11.1772 9.50996C11.5033 9.18385 11.6663 8.79163 11.6663 8.33329C11.6663 7.87496 11.5033 7.48246 11.1772 7.15579C10.8505 6.82968 10.458 6.66663 9.99967 6.66663C9.54134 6.66663 9.14912 6.82968 8.82301 7.15579C8.49634 7.48246 8.33301 7.87496 8.33301 8.33329C8.33301 8.79163 8.49634 9.18385 8.82301 9.50996C9.14912 9.83663 9.54134 9.99996 9.99967 9.99996ZM9.99967 16.125C11.6941 14.5694 12.9511 13.1561 13.7705 11.885C14.59 10.6144 14.9997 9.48607 14.9997 8.49996C14.9997 6.98607 14.5169 5.74635 13.5513 4.78079C12.5863 3.81579 11.4025 3.33329 9.99967 3.33329C8.5969 3.33329 7.41273 3.81579 6.44717 4.78079C5.48217 5.74635 4.99967 6.98607 4.99967 8.49996C4.99967 9.48607 5.4094 10.6144 6.22884 11.885C7.04829 13.1561 8.30523 14.5694 9.99967 16.125ZM9.99967 18.0208C9.88856 18.0208 9.77745 18 9.66634 17.9583C9.55523 17.9166 9.45801 17.8611 9.37467 17.7916C7.3469 16 5.83301 14.3369 4.83301 12.8025C3.83301 11.2675 3.33301 9.83329 3.33301 8.49996C3.33301 6.41663 4.00329 4.7569 5.34384 3.52079C6.68384 2.28468 8.23579 1.66663 9.99967 1.66663C11.7636 1.66663 13.3155 2.28468 14.6555 3.52079C15.9961 4.7569 16.6663 6.41663 16.6663 8.49996C16.6663 9.83329 16.1663 11.2675 15.1663 12.8025C14.1663 14.3369 12.6525 16 10.6247 17.7916C10.5413 17.8611 10.4441 17.9166 10.333 17.9583C10.2219 18 10.1108 18.0208 9.99967 18.0208Z" fill="#161616"/>
</svg>
