<svg width="20" height="20" viewBox="0 0 20 20" fill="none" xmlns="http://www.w3.org/2000/svg">
<path d="M10.0601 10.0741C10.5225 10.0741 10.9185 9.90936 11.2481 9.57978C11.5771 9.25076 11.7416 8.85504 11.7416 8.39262C11.7416 7.9302 11.5771 7.5342 11.2481 7.20462C10.9185 6.8756 10.5225 6.71109 10.0601 6.71109C9.59768 6.71109 9.20196 6.8756 8.87294 7.20462C8.54336 7.5342 8.37857 7.9302 8.37857 8.39262C8.37857 8.85504 8.54336 9.25076 8.87294 9.57978C9.20196 9.90936 9.59768 10.0741 10.0601 10.0741ZM10.0601 16.2538C11.7697 14.6843 13.0378 13.2584 13.8646 11.976C14.6913 10.6941 15.1047 9.55568 15.1047 8.56077C15.1047 7.03338 14.6176 5.78261 13.6434 4.80844C12.6698 3.83484 11.4754 3.34803 10.0601 3.34803C8.64481 3.34803 7.45009 3.83484 6.47592 4.80844C5.50232 5.78261 5.01551 7.03338 5.01551 8.56077C5.01551 9.55568 5.42889 10.6941 6.25564 11.976C7.08239 13.2584 8.35054 14.6843 10.0601 16.2538ZM10.0601 18.1665C9.948 18.1665 9.8359 18.1455 9.72379 18.1034C9.61169 18.0614 9.5136 18.0054 9.42953 17.9353C7.38367 16.1277 5.85628 14.4498 4.84736 12.9016C3.83844 11.353 3.33398 9.90599 3.33398 8.56077C3.33398 6.45886 4.01024 4.78434 5.36275 3.5372C6.7147 2.29007 8.28048 1.6665 10.0601 1.6665C11.8397 1.6665 13.4055 2.29007 14.7574 3.5372C16.11 4.78434 16.7862 6.45886 16.7862 8.56077C16.7862 9.90599 16.2818 11.353 15.2728 12.9016C14.2639 14.4498 12.7365 16.1277 10.6907 17.9353C10.6066 18.0054 10.5085 18.0614 10.3964 18.1034C10.2843 18.1455 10.1722 18.1665 10.0601 18.1665Z" fill="#C3A581"/>
</svg>
