<svg width="25" height="25" viewBox="0 0 25 25" fill="none" xmlns="http://www.w3.org/2000/svg">
<path d="M8.07134 12.6891C8.62624 12.6891 9.10144 12.4914 9.49694 12.0959C9.89176 11.7011 10.0892 11.2262 10.0892 10.6713C10.0892 10.1164 9.89176 9.64121 9.49694 9.24571C9.10144 8.85089 8.62624 8.65348 8.07134 8.65348C7.51643 8.65348 7.04157 8.85089 6.64675 9.24571C6.25125 9.64121 6.0535 10.1164 6.0535 10.6713C6.0535 11.2262 6.25125 11.7011 6.64675 12.0959C7.04157 12.4914 7.51643 12.6891 8.07134 12.6891ZM8.07134 20.1047C10.1228 18.2214 11.6446 16.5103 12.6367 14.9713C13.6288 13.4331 14.1248 12.067 14.1248 10.8731C14.1248 9.04023 13.5403 7.5393 12.3713 6.3703C11.203 5.20197 9.76968 4.61781 8.07134 4.61781C6.37299 4.61781 4.93932 5.20197 3.77032 6.3703C2.602 7.5393 2.01783 9.04023 2.01783 10.8731C2.01783 12.067 2.51389 13.4331 3.50599 14.9713C4.49809 16.5103 6.01987 18.2214 8.07134 20.1047ZM8.07134 22.4C7.93681 22.4 7.80229 22.3748 7.66777 22.3243C7.53325 22.2739 7.41554 22.2066 7.31465 22.1225C4.85962 19.9534 3.02675 17.9399 1.81605 16.0821C0.60535 14.2237 0 12.4874 0 10.8731C0 8.3508 0.811506 6.34138 2.43452 4.84482C4.05686 3.34826 5.9358 2.59998 8.07134 2.59998C10.2069 2.59998 12.0858 3.34826 13.7082 4.84482C15.3312 6.34138 16.1427 8.3508 16.1427 10.8731C16.1427 12.4874 15.5373 14.2237 14.3266 16.0821C13.1159 17.9399 11.2831 19.9534 8.82802 22.1225C8.72713 22.2066 8.60943 22.2739 8.4749 22.3243C8.34038 22.3748 8.20586 22.4 8.07134 22.4Z" fill="#9F815C" fill-opacity="0.8"/>
</svg>
