<svg width="68" height="68" viewBox="0 0 68 68" fill="none" xmlns="http://www.w3.org/2000/svg">
<rect width="68" height="68" rx="4" fill="white"/>
<path d="M34.0432 9.0523C47.8101 9.0523 59.0341 20.1889 59.0341 34.0439C59.0341 47.8988 47.8101 58.9478 34.0432 58.9478C20.2763 58.9478 9.05229 47.8112 9.05229 34.0439C9.05229 20.2766 20.1886 9.0523 34.0432 9.0523ZM34.0432 8.43848C19.9255 8.43848 8.43848 19.9258 8.43848 34.0439C8.43848 48.1619 19.9255 59.6493 34.0432 59.6493C48.1609 59.6493 59.6479 48.1619 59.6479 34.0439C59.6479 19.9258 48.0732 8.43848 34.0432 8.43848Z" fill="#161616"/>
<path d="M22.6442 23.9594C22.4688 23.9594 22.4688 23.8717 22.4688 23.784C22.4688 23.6086 22.5565 23.1702 22.9073 23.1702C24.2226 23.1702 25.4502 23.2579 26.7655 23.2579C27.9055 23.2579 29.0454 23.1702 30.1853 23.1702C30.3607 23.1702 30.4484 23.1702 30.4484 23.3455C30.4484 23.9594 30.273 24.0471 29.5715 24.0471C27.9931 24.2224 27.8178 24.4855 27.1163 27.9054C26.8532 29.3084 24.398 41.4096 24.398 42.8127C24.398 43.9526 25.4502 43.9526 26.7655 43.9526C32.2898 43.9526 33.4298 42.6373 33.9559 40.9712C34.1313 40.445 34.1313 40.3574 34.3066 40.3574C34.482 40.3574 34.8328 40.3574 34.8328 40.6204C34.8328 40.7081 34.3943 42.4619 34.1313 43.2511C33.6051 44.7418 33.4298 45.0049 31.7637 45.0049C29.5715 45.0049 27.3793 44.9172 25.1872 44.9172C22.2935 44.9172 20.5397 45.0049 19.3121 45.0049C19.2244 45.0049 19.1367 45.0049 19.1367 44.8295C19.1367 44.2157 19.3998 44.2157 20.0136 44.128C21.592 43.9526 21.7673 43.6896 22.4688 40.2697C22.7319 38.9543 25.1872 26.9408 25.1872 25.5378C25.0118 24.2224 24.2226 24.1348 22.6442 23.9594Z" fill="#161616"/>
<path d="M30.9746 27.5547C30.9746 24.0471 33.6052 22.9949 36.3235 22.9949C36.6743 22.9949 37.8142 22.9949 38.9542 23.0826C40.0941 23.0826 41.0587 23.1703 41.5848 23.1703C42.7247 23.1703 43.9523 23.0826 45.0923 23.0826C45.443 23.0826 45.5307 23.521 45.5307 23.6964C45.5307 23.7841 45.5307 23.7841 45.3553 23.8718C43.8647 24.0471 42.9878 24.1348 42.9878 25.5379C42.9878 26.8532 45.443 38.9544 45.7061 40.2697C46.4076 43.6896 46.583 43.9527 48.1613 44.1281C48.8628 44.2158 49.0382 44.2158 49.0382 44.8296C49.0382 45.005 48.9505 45.005 48.8628 45.005C47.5475 45.005 46.3199 44.9173 45.0046 44.9173C43.6016 44.9173 42.1109 45.005 40.7079 45.005C40.3572 45.005 40.2695 44.5665 40.2695 44.3912C40.2695 44.2158 40.3572 44.2158 41.0587 44.2158C42.5493 44.1281 43.6893 44.1281 43.6893 42.6374C43.6893 41.1466 40.5325 25.6256 40.4448 25.2748C40.2695 24.661 40.0941 24.1348 37.9019 24.1348C35.0959 24.1348 33.5175 25.2748 33.5175 27.9932C33.5175 30.5362 35.0959 33.3423 39.4803 33.3423C40.4449 33.3423 40.4448 33.3423 40.4448 33.6053C40.4448 34.3068 40.1818 34.3068 39.3926 34.3068C34.8329 34.2192 30.9746 31.6762 30.9746 27.5547Z" fill="#161616"/>
</svg>
