<svg width="20" height="20" viewBox="0 0 20 20" fill="none" xmlns="http://www.w3.org/2000/svg">
<path d="M4.33333 19C3.82917 19 3.39742 18.8206 3.03808 18.4619C2.67936 18.1026 2.5 17.6708 2.5 17.1667V4.33333C2.5 3.82917 2.67936 3.39742 3.03808 3.03808C3.39742 2.67936 3.82917 2.5 4.33333 2.5H17.1667C17.6708 2.5 18.1026 2.67936 18.4619 3.03808C18.8206 3.39742 19 3.82917 19 4.33333V17.1667C19 17.6708 18.8206 18.1026 18.4619 18.4619C18.1026 18.8206 17.6708 19 17.1667 19H4.33333ZM4.33333 17.1667H9.83333V4.33333H4.33333V17.1667ZM11.6667 17.1667H17.1667V10.75H11.6667V17.1667ZM11.6667 8.91667H17.1667V4.33333H11.6667V8.91667Z" fill="#C3A581"/>
</svg>
