<svg width="20" height="20" viewBox="0 0 20 20" fill="none" xmlns="http://www.w3.org/2000/svg">
<path d="M16.6581 18.2778H12.7993C12.3735 18.2757 11.9658 18.1056 11.6647 17.8046C11.3636 17.5035 11.1935 17.0958 11.1914 16.67V13.1327H9.26202V16.67C9.25991 17.0958 9.08983 17.5035 8.78876 17.8046C8.48768 18.1056 8.07995 18.2757 7.65417 18.2778H3.79535C3.36957 18.2757 2.96183 18.1056 2.66076 17.8046C2.35969 17.5035 2.18961 17.0958 2.1875 16.67V9.2337C2.18803 9.00934 2.23551 8.78757 2.32689 8.58265C2.41827 8.37774 2.55153 8.19422 2.71809 8.0439L9.14143 2.19938C9.43783 1.92822 9.825 1.77783 10.2267 1.77783C10.6285 1.77783 11.0156 1.92822 11.312 2.19938L17.7434 8.0439C17.9073 8.19586 18.0383 8.37988 18.1282 8.58455C18.2181 8.78921 18.265 9.01017 18.266 9.2337V16.67C18.2638 17.0958 18.0938 17.5035 17.7927 17.8046C17.4916 18.1056 17.0839 18.2757 16.6581 18.2778ZM13.1208 16.3484H16.3365V9.37841L10.2267 3.8233L4.11691 9.37841V16.3484H7.3326V12.8112C7.33472 12.3854 7.50479 11.9776 7.80587 11.6766C8.10694 11.3755 8.51467 11.2054 8.94045 11.2033H11.513C11.9388 11.2054 12.3465 11.3755 12.6476 11.6766C12.9487 11.9776 13.1187 12.3854 13.1208 12.8112V16.3484Z" fill="#C3A581"/>
</svg>
