<svg width="20" height="20" viewBox="0 0 20 20" fill="none" xmlns="http://www.w3.org/2000/svg">
<path d="M16.25 17.8125H12.5C12.0862 17.8104 11.69 17.6452 11.3974 17.3526C11.1048 17.06 10.9396 16.6638 10.9375 16.25V12.8125H9.0625V16.25C9.06045 16.6638 8.89517 17.06 8.60259 17.3526C8.31 17.6452 7.91377 17.8104 7.5 17.8125H3.75C3.33623 17.8104 2.94 17.6452 2.64741 17.3526C2.35483 17.06 2.18955 16.6638 2.1875 16.25V9.02343C2.18802 8.80539 2.23416 8.58988 2.32296 8.39074C2.41176 8.19161 2.54126 8.01326 2.70312 7.86718L8.94531 2.18749C9.23335 1.92398 9.60961 1.77783 10 1.77783C10.3904 1.77783 10.7666 1.92398 11.0547 2.18749L17.3047 7.86718C17.464 8.01485 17.5913 8.19368 17.6786 8.39258C17.766 8.59148 17.8116 8.8062 17.8125 9.02343V16.25C17.8104 16.6638 17.6452 17.06 17.3526 17.3526C17.06 17.6452 16.6638 17.8104 16.25 17.8125ZM12.8125 15.9375H15.9375V9.16405L10 3.76562L4.0625 9.16405V15.9375H7.1875V12.5C7.18955 12.0862 7.35483 11.69 7.64741 11.3974C7.94 11.1048 8.33623 10.9395 8.75 10.9375H11.25C11.6638 10.9395 12.06 11.1048 12.3526 11.3974C12.6452 11.69 12.8104 12.0862 12.8125 12.5V15.9375Z" fill="#161616"/>
</svg>
